<mxfile host="app.diagrams.net" modified="2024-06-01T20:47:19.834Z" agent="Mozilla/5.0 (X11; Linux x86_64; rv:126.0) Gecko/20100101 Firefox/126.0" etag="1pGbVnh7J4-I8FGZN3YS" version="24.4.13" type="device">
  <diagram id="C5RBs43oDa-KdzZeNtuy" name="Page-1">
    <mxGraphModel dx="1195" dy="658" grid="0" gridSize="10" guides="1" tooltips="1" connect="1" arrows="1" fold="1" page="1" pageScale="1" pageWidth="827" pageHeight="1169" background="#000000" math="0" shadow="0">
      <root>
        <mxCell id="WIyWlLk6GJQsqaUBKTNV-0" />
        <mxCell id="WIyWlLk6GJQsqaUBKTNV-1" parent="WIyWlLk6GJQsqaUBKTNV-0" />
        <mxCell id="_rzrql6F4yf82XZ7Cdbd-26" value="devices" style="shape=folder;spacingTop=4;tabWidth=130;tabHeight=30;tabPosition=left;fillColor=#0050ef;shadow=0;spacingLeft=8;verticalAlign=top;align=left;textDirection=ltr;spacing=0;fontColor=#ffffff;labelBackgroundColor=none;labelBorderColor=none;textShadow=0;whiteSpace=wrap;html=1;fontStyle=2;horizontal=1;strokeColor=none;gradientColor=default;fontFamily=Comic Sans MS;" vertex="1" parent="WIyWlLk6GJQsqaUBKTNV-1">
          <mxGeometry x="241.25" y="96" width="345.5" height="220" as="geometry" />
        </mxCell>
        <mxCell id="_rzrql6F4yf82XZ7Cdbd-2" value="interfaces" style="shape=folder;spacingTop=4;tabWidth=130;tabHeight=30;tabPosition=left;fillColor=#008a00;shadow=0;spacingLeft=8;verticalAlign=top;align=left;textDirection=ltr;spacing=0;labelBackgroundColor=none;labelBorderColor=none;textShadow=0;whiteSpace=wrap;html=1;fontStyle=2;horizontal=1;strokeColor=none;gradientDirection=south;fontColor=#ffffff;fillStyle=solid;gradientColor=default;fontFamily=Comic Sans MS;" vertex="1" parent="WIyWlLk6GJQsqaUBKTNV-1">
          <mxGeometry x="7.5" y="356" width="812" height="170" as="geometry" />
        </mxCell>
        <mxCell id="_rzrql6F4yf82XZ7Cdbd-1" value="&lt;p style=&quot;margin:0px;margin-top:4px;text-align:center;&quot;&gt;&lt;i&gt;&amp;lt;&amp;lt;Interface&amp;gt;&amp;gt;&lt;/i&gt;&lt;br&gt;ReprodutorMusical&lt;/p&gt;&lt;hr size=&quot;1&quot; style=&quot;border-style:solid;&quot;&gt;&lt;p style=&quot;margin:0px;margin-left:4px;&quot;&gt;+ tocar(): void&lt;br&gt;+ pausar(): void&lt;br&gt;&lt;/p&gt;&lt;p style=&quot;margin:0px;margin-left:4px;&quot;&gt;+ selecionarMusica(String musica): void&lt;br&gt;&lt;/p&gt;" style="verticalAlign=top;align=left;overflow=fill;html=1;whiteSpace=wrap;fillColor=none;fillStyle=solid;strokeColor=#FFFFFF;fontColor=#FFFFFF;fontFamily=Comic Sans MS;" vertex="1" parent="WIyWlLk6GJQsqaUBKTNV-1">
          <mxGeometry x="18" y="403" width="257" height="100" as="geometry" />
        </mxCell>
        <mxCell id="_rzrql6F4yf82XZ7Cdbd-4" value="&lt;p style=&quot;margin:0px;margin-top:4px;text-align:center;&quot;&gt;&lt;i&gt;&amp;lt;&amp;lt;Interface&amp;gt;&amp;gt;&lt;br&gt;&lt;/i&gt;AparelhoTelefonico&lt;/p&gt;&lt;hr size=&quot;1&quot; style=&quot;border-style:solid;&quot;&gt;&lt;p style=&quot;margin:0px;margin-left:4px;&quot;&gt;+ ligar(String numero): void&lt;br&gt;+ atender(): void&lt;br&gt;&lt;/p&gt;&lt;p style=&quot;margin:0px;margin-left:4px;&quot;&gt;+ iniciarCorreioVoz(): void&lt;br&gt;&lt;/p&gt;" style="verticalAlign=top;align=left;overflow=fill;html=1;whiteSpace=wrap;fillColor=none;fillStyle=solid;strokeColor=#FFFFFF;fontColor=#FFFFFF;fontFamily=Comic Sans MS;" vertex="1" parent="WIyWlLk6GJQsqaUBKTNV-1">
          <mxGeometry x="285" y="403" width="257" height="100" as="geometry" />
        </mxCell>
        <mxCell id="_rzrql6F4yf82XZ7Cdbd-5" value="&lt;p style=&quot;margin:0px;margin-top:4px;text-align:center;&quot;&gt;&lt;i&gt;&amp;lt;&amp;lt;Interface&amp;gt;&amp;gt;&lt;br&gt;NavegadorInternet&lt;br&gt;&lt;/i&gt;&lt;/p&gt;&lt;hr size=&quot;1&quot; style=&quot;border-style:solid;&quot;&gt;&lt;p style=&quot;margin:0px;margin-left:4px;&quot;&gt;+ exibirPagina(String url): void&lt;br&gt;+ adicionarNovaAba(): void&lt;br&gt;&lt;/p&gt;&lt;p style=&quot;margin:0px;margin-left:4px;&quot;&gt;+ atualizarPagina(): void&lt;br&gt;&lt;/p&gt;" style="verticalAlign=top;align=left;overflow=fill;html=1;whiteSpace=wrap;fillColor=none;fillStyle=solid;strokeColor=#FFFFFF;fontColor=#FFFFFF;fontFamily=Comic Sans MS;" vertex="1" parent="WIyWlLk6GJQsqaUBKTNV-1">
          <mxGeometry x="552" y="403" width="257" height="100" as="geometry" />
        </mxCell>
        <mxCell id="_rzrql6F4yf82XZ7Cdbd-12" value="apps" style="shape=folder;spacingTop=4;tabWidth=130;tabHeight=30;tabPosition=left;fillColor=#a0522d;shadow=0;spacingLeft=8;verticalAlign=top;align=left;textDirection=ltr;spacing=0;fontColor=#ffffff;labelBackgroundColor=none;labelBorderColor=none;textShadow=0;whiteSpace=wrap;html=1;fontStyle=2;horizontal=1;strokeColor=none;gradientColor=default;fontFamily=Comic Sans MS;" vertex="1" parent="WIyWlLk6GJQsqaUBKTNV-1">
          <mxGeometry x="121.625" y="566" width="584.75" height="130" as="geometry" />
        </mxCell>
        <mxCell id="_rzrql6F4yf82XZ7Cdbd-16" value="&lt;p style=&quot;margin:0px;margin-top:4px;text-align:center;&quot;&gt;&lt;b&gt;IPod&lt;/b&gt;&lt;/p&gt;&lt;hr size=&quot;1&quot; style=&quot;border-style:solid;&quot;&gt;" style="verticalAlign=top;align=left;overflow=fill;html=1;whiteSpace=wrap;fillColor=none;strokeColor=#FFFFFF;fontColor=#FFFFFF;fontFamily=Comic Sans MS;" vertex="1" parent="WIyWlLk6GJQsqaUBKTNV-1">
          <mxGeometry x="164" y="616" width="160" height="60" as="geometry" />
        </mxCell>
        <mxCell id="_rzrql6F4yf82XZ7Cdbd-18" value="&lt;p style=&quot;margin:0px;margin-top:4px;text-align:center;&quot;&gt;&lt;b&gt;Phone&lt;/b&gt;&lt;/p&gt;&lt;hr size=&quot;1&quot; style=&quot;border-style:solid;&quot;&gt;" style="verticalAlign=top;align=left;overflow=fill;html=1;whiteSpace=wrap;fillColor=none;strokeColor=#FFFFFF;fontColor=#FFFFFF;fontFamily=Comic Sans MS;" vertex="1" parent="WIyWlLk6GJQsqaUBKTNV-1">
          <mxGeometry x="334" y="616" width="160" height="60" as="geometry" />
        </mxCell>
        <mxCell id="_rzrql6F4yf82XZ7Cdbd-19" value="&lt;p style=&quot;margin:0px;margin-top:4px;text-align:center;&quot;&gt;&lt;b&gt;Safari&lt;/b&gt;&lt;/p&gt;&lt;hr size=&quot;1&quot; style=&quot;border-style:solid;&quot;&gt;" style="verticalAlign=top;align=left;overflow=fill;html=1;whiteSpace=wrap;fillColor=none;strokeColor=#FFFFFF;fontColor=#FFFFFF;fontFamily=Comic Sans MS;" vertex="1" parent="WIyWlLk6GJQsqaUBKTNV-1">
          <mxGeometry x="504" y="616" width="160" height="60" as="geometry" />
        </mxCell>
        <mxCell id="_rzrql6F4yf82XZ7Cdbd-20" value="&lt;p style=&quot;margin:0px;margin-top:4px;text-align:center;&quot;&gt;&lt;b&gt;IPhone&lt;/b&gt;&lt;/p&gt;&lt;hr size=&quot;1&quot; style=&quot;border-style:solid;&quot;&gt;&lt;p style=&quot;margin:0px;margin-left:4px;&quot;&gt;    - reprodutor: ReprodutorMusical&lt;br&gt;    - telefone: AparelhoTelefonico&lt;br&gt;    - navegador: NavegadorInternet&lt;/p&gt;&lt;hr size=&quot;1&quot; style=&quot;border-style:solid;&quot;&gt;&lt;p style=&quot;margin:0px;margin-left:4px;&quot;&gt;    + getReprodutor(): ReprodutorMusical&lt;br&gt;    + getTelefone(): AparelhoTelefonico&lt;br&gt;    + getNavegador(): NavegadorInternet&lt;/p&gt;" style="verticalAlign=top;align=left;overflow=fill;html=1;whiteSpace=wrap;fillColor=none;strokeColor=#FFFFFF;fontColor=#FFFFFF;fontFamily=Comic Sans MS;" vertex="1" parent="WIyWlLk6GJQsqaUBKTNV-1">
          <mxGeometry x="290.5" y="146" width="247" height="150" as="geometry" />
        </mxCell>
        <mxCell id="_rzrql6F4yf82XZ7Cdbd-21" value="" style="endArrow=block;dashed=1;endFill=0;endSize=12;html=1;rounded=0;exitX=0.5;exitY=0;exitDx=0;exitDy=0;entryX=0.5;entryY=1;entryDx=0;entryDy=0;strokeColor=#FFFFFF;fontFamily=Comic Sans MS;" edge="1" parent="WIyWlLk6GJQsqaUBKTNV-1" source="_rzrql6F4yf82XZ7Cdbd-16" target="_rzrql6F4yf82XZ7Cdbd-1">
          <mxGeometry width="160" relative="1" as="geometry">
            <mxPoint x="174" y="646" as="sourcePoint" />
            <mxPoint x="334" y="646" as="targetPoint" />
          </mxGeometry>
        </mxCell>
        <mxCell id="_rzrql6F4yf82XZ7Cdbd-23" value="" style="endArrow=block;dashed=1;endFill=0;endSize=12;html=1;rounded=0;exitX=0.5;exitY=0;exitDx=0;exitDy=0;entryX=0.5;entryY=1;entryDx=0;entryDy=0;strokeColor=#FFFFFF;fontFamily=Comic Sans MS;" edge="1" parent="WIyWlLk6GJQsqaUBKTNV-1" source="_rzrql6F4yf82XZ7Cdbd-18" target="_rzrql6F4yf82XZ7Cdbd-4">
          <mxGeometry width="160" relative="1" as="geometry">
            <mxPoint x="444" y="676" as="sourcePoint" />
            <mxPoint x="359" y="496" as="targetPoint" />
          </mxGeometry>
        </mxCell>
        <mxCell id="_rzrql6F4yf82XZ7Cdbd-24" value="" style="endArrow=block;dashed=1;endFill=0;endSize=12;html=1;rounded=0;exitX=0.5;exitY=0;exitDx=0;exitDy=0;entryX=0.5;entryY=1;entryDx=0;entryDy=0;strokeColor=#FFFFFF;fontFamily=Comic Sans MS;" edge="1" parent="WIyWlLk6GJQsqaUBKTNV-1" source="_rzrql6F4yf82XZ7Cdbd-19" target="_rzrql6F4yf82XZ7Cdbd-5">
          <mxGeometry width="160" relative="1" as="geometry">
            <mxPoint x="586.5" y="731" as="sourcePoint" />
            <mxPoint x="621.5" y="551" as="targetPoint" />
          </mxGeometry>
        </mxCell>
        <mxCell id="_rzrql6F4yf82XZ7Cdbd-27" value="" style="endArrow=block;dashed=1;endFill=0;endSize=12;html=1;rounded=0;exitX=0.25;exitY=1;exitDx=0;exitDy=0;entryX=0.5;entryY=0;entryDx=0;entryDy=0;strokeColor=#FFFFFF;fontFamily=Comic Sans MS;" edge="1" parent="WIyWlLk6GJQsqaUBKTNV-1" source="_rzrql6F4yf82XZ7Cdbd-20" target="_rzrql6F4yf82XZ7Cdbd-1">
          <mxGeometry width="160" relative="1" as="geometry">
            <mxPoint x="369" y="316" as="sourcePoint" />
            <mxPoint x="529" y="316" as="targetPoint" />
          </mxGeometry>
        </mxCell>
        <mxCell id="_rzrql6F4yf82XZ7Cdbd-28" value="" style="endArrow=block;dashed=1;endFill=0;endSize=12;html=1;rounded=0;exitX=0.5;exitY=1;exitDx=0;exitDy=0;entryX=0.5;entryY=0;entryDx=0;entryDy=0;strokeColor=#FFFFFF;fontFamily=Comic Sans MS;" edge="1" parent="WIyWlLk6GJQsqaUBKTNV-1" source="_rzrql6F4yf82XZ7Cdbd-20" target="_rzrql6F4yf82XZ7Cdbd-4">
          <mxGeometry width="160" relative="1" as="geometry">
            <mxPoint x="377" y="276" as="sourcePoint" />
            <mxPoint x="174" y="416" as="targetPoint" />
          </mxGeometry>
        </mxCell>
        <mxCell id="_rzrql6F4yf82XZ7Cdbd-29" value="" style="endArrow=block;dashed=1;endFill=0;endSize=12;html=1;rounded=0;exitX=0.75;exitY=1;exitDx=0;exitDy=0;entryX=0.5;entryY=0;entryDx=0;entryDy=0;strokeColor=#FFFFFF;fontFamily=Comic Sans MS;" edge="1" parent="WIyWlLk6GJQsqaUBKTNV-1" source="_rzrql6F4yf82XZ7Cdbd-20" target="_rzrql6F4yf82XZ7Cdbd-5">
          <mxGeometry width="160" relative="1" as="geometry">
            <mxPoint x="387" y="286" as="sourcePoint" />
            <mxPoint x="184" y="426" as="targetPoint" />
          </mxGeometry>
        </mxCell>
      </root>
    </mxGraphModel>
  </diagram>
</mxfile>
